<svg xmlns="http://www.w3.org/2000/svg" viewBox="0 0 1000 1000" xml:space="preserve"><path d="M990 512c0 106.8-31.2 202.8-93.5 288.1-62.3 85.3-142.8 144.3-241.5 177-11.5 2.1-19.9.6-25.2-4.5-5.3-5.1-8-11.5-8-19.1V818.9c0-41.3-11.1-71.5-33.2-90.6 24.2-2.6 46-6.4 65.4-11.5 19.4-5.1 39.3-13.4 60-24.9 20.6-11.5 37.9-25.6 51.7-42.4 13.8-16.8 25.1-39.1 33.8-67 8.7-27.9 13.1-59.9 13.1-96 0-51.5-16.8-95.3-50.4-131.4 15.7-38.7 14-82.1-5.1-130.2-11.9-3.8-29.1-1.5-51.7 7-22.5 8.5-42.1 17.9-58.7 28.1l-24.2 15.3c-39.6-11.1-80.4-16.6-122.5-16.6-42.1 0-82.9 5.5-122.5 16.6-6.8-4.7-15.8-10.4-27.1-17.2-11.3-6.8-29-15-53.3-24.6-24.2-9.6-42.5-12.4-54.9-8.6-18.7 48.1-20.2 91.4-4.5 130.2-33.6 36.2-50.4 80-50.4 131.4 0 36.2 4.4 68.1 13.1 95.7 8.7 27.6 19.9 50 33.5 67 13.6 17 30.7 31.3 51.4 42.7 20.6 11.5 40.6 19.8 60 24.9 19.4 5.1 41.2 8.9 65.4 11.5-17 15.3-27.4 37.2-31.3 65.7-8.9 4.3-18.5 7.4-28.7 9.6-10.2 2.1-22.3 3.2-36.4 3.2-14 0-28-4.6-41.8-13.7s-25.6-22.4-35.4-39.9c-8.1-13.6-18.4-24.7-30.9-33.2-12.5-8.5-23.1-13.6-31.6-15.3l-12.8-1.9c-8.9 0-15.1 1-18.5 2.9-3.4 1.9-4.5 4.4-3.2 7.3 1.3 3 3.2 6 5.7 8.9 2.6 3 5.3 5.5 8.3 7.7l4.5 3.2c9.4 4.3 18.6 12.3 27.8 24.2 9.1 11.9 15.8 22.8 20.1 32.5l6.4 14.7c5.5 16.2 14.9 29.2 28.1 39.2 13.2 10 27.4 16.4 42.7 19.1s30.1 4.3 44.3 4.5c14.2.2 26.1-.5 35.4-2.2l14.7-2.6c0 16.2.1 35.1.3 56.8.2 21.7.3 33.2.3 34.5 0 7.7-2.8 14-8.3 19.1-5.5 5.1-14 6.6-25.5 4.5-98.7-32.8-179.2-91.8-241.5-177C41.2 714.8 10 618.7 10 512c0-88.9 21.9-170.9 65.7-246C119.5 190.9 179 131.5 254 87.7S411.1 22 500 22s170.9 21.9 246 65.7C821.1 131.5 880.5 191 924.3 266S990 423.1 990 512z"/></svg>