<svg xmlns="http://www.w3.org/2000/svg" viewBox="0 0 1000 1000" xml:space="preserve"><path d="M871.7 119.6C794.2 43.7 669 6.9 499.4 10.2c-171 3.4-285.3 33.4-359.7 94.5-72 59.1-105.5 145.5-105.5 272v129.1c0 149.3 80 313.5 232.9 338.3 17.7 2.9 34.3-9.1 37.2-26.8 2.9-17.7-9.1-34.3-26.8-37.2-116-18.8-178.6-155.4-178.6-274.4V376.6c0-181.4 67.2-295.1 401.7-301.7 151.7-3 261.1 27.6 325.7 90.9 50.3 49.3 74.8 118.3 74.8 210.8v129.1c0 195.5-87.7 281.7-312.8 307.1H428.8c-8.6 0-16.8 3.4-22.9 9.5L293.4 934.7c-12.6 12.6-12.6 33.2 0 45.8 6.3 6.3 14.6 9.5 22.9 9.5 8.3 0 16.6-3.2 22.9-9.5l103-103h148c1.2 0 2.4-.1 3.6-.2 128.8-14.3 217-47.8 277.5-105.5 63.7-60.6 94.6-147.7 94.6-266.2v-129c0-109.2-31.7-195.7-94.2-257z"/><path d="M520.2 221.5c52.2 0 101.2 20.3 138.1 57.2 36.9 36.9 57.2 86 57.2 138.2 0 17.9 14.5 32.4 32.4 32.4s32.4-14.5 32.4-32.4c0-69.5-27.1-134.8-76.2-184-49.1-49.1-114.4-76.2-183.9-76.2-17.9 0-32.4 14.5-32.4 32.4s14.5 32.4 32.4 32.4z"/><path d="M520.2 335.4c44.9 0 81.5 36.6 81.5 81.5 0 17.9 14.5 32.4 32.4 32.4s32.4-14.5 32.4-32.4c0-80.6-65.6-146.2-146.3-146.3-17.9 0-32.4 14.5-32.4 32.4s14.5 32.4 32.4 32.4zM375 390.9c-14.8 10.1-18.5 30.2-8.5 45 10.1 14.8 30.2 18.5 45 8.5 11.6-7.9 38.8-26.5 36.9-63.7-1.2-22.2-21.3-54-37.9-76.7-24.3-33.3-45.3-53.3-62.1-59.5-15.8-5.9-32.2-6-49-.4-34.8 11.7-60 32.9-73 61.2-12.6 27.6-12.4 59.3.8 91.7 31.2 76.2 74.7 143 129.8 198.8 55.5 54.8 122.3 98.3 198.6 129.5 16.5 6.7 32.9 10.1 48.6 10.1 15.1 0 29.6-3.1 43.1-9.3 28.3-13 49.5-38.2 61.2-73 5.6-16.7 5.5-33.2-.3-48.9-6.3-17-26.3-37.9-59.5-62.3-22.7-16.6-54.5-36.7-76.8-37.9-37.1-1.9-55.7 25.3-63.6 36.9-10.1 14.8-6.3 34.9 8.4 45 14.8 10.1 34.9 6.3 45-8.4 3.5-5.2 5.5-7.5 6.7-8.5 18.2 5.8 70 43.9 79.3 58.5.2.9.3 2.4-.6 4.9-4.1 12.1-12.1 28-26.8 34.8-13.8 6.3-29.5 2.4-40.2-1.9-68.4-27.9-128.2-66.8-177.3-115.3-48.8-49.4-87.7-109.1-115.6-177.5-4.4-10.7-8.3-26.4-1.9-40.2 6.8-14.7 22.6-22.7 34.7-26.8 2.6-.9 4-.8 5-.6 14.6 9.3 52.7 61.2 58.5 79.3-1 1.1-3.3 3.1-8.5 6.7z"/></svg>